<mxfile host="app.diagrams.net" modified="2023-07-27T07:44:45.228Z" agent="Mozilla/5.0 (Macintosh; Intel Mac OS X 10_15_7) AppleWebKit/537.36 (KHTML, like Gecko) Chrome/114.0.0.0 Safari/537.36" version="21.6.5" etag="F7_hfPfLYR8nF8i6knOx" type="github">
  <diagram name="第 1 页" id="0sHmJYk6FEr0hzDNv7Un">
    <mxGraphModel>
      <root>
        <mxCell id="0" />
        <mxCell id="1" parent="0" />
      </root>
    </mxGraphModel>
  </diagram>
</mxfile>
